<svg version="1.1" xmlns="http://www.w3.org/2000/svg" xmlns:xlink="http://www.w3.org/1999/xlink" width="32" height="32" viewBox="0,0,256,256"><g fill="none" fill-rule="nonzero" stroke="none" stroke-width="1" stroke-linecap="butt" stroke-linejoin="miter" stroke-miterlimit="10" stroke-dasharray="" stroke-dashoffset="0" font-family="none" font-weight="none" font-size="none" text-anchor="none" style="mix-blend-mode: normal"><g transform="scale(8,8)"><path d="M2,27h27.9985v2h-27.9985z" fill="#ffffff"></path><path d="M16,20c2.20811,0.00248 3.99752,1.79189 4,4h2c0,-3.31371 -2.68629,-6 -6,-6c-3.31371,0 -6,2.68629 -6,6h2c0.00248,-2.20811 1.79189,-3.99752 4,-4z" fill="#ffffff"></path><path d="M25,22h5v2h-5z" fill="#ffffff"></path><path transform="translate(-4.1378,21.7175) rotate(-45) scale(1,1)" d="M21.6675,14.8536h4.958v1.9998h-4.958z" fill="#ffffff"></path><path d="M16,4l-5,5l1.41,1.41l2.59,-2.58v0.17v7h2v-7v-0.17l2.59,2.58l1.41,-1.41z" fill="#ffffff"></path><path transform="translate(-8.9099,10.1967) rotate(-45) scale(1,1)" d="M6.8536,13.3745h1.9998v4.958h-1.9998z" fill="#ffffff"></path><path d="M2,22h5v2h-5z" fill="#ffffff"></path><path d="M0,0h32v32h-32z" fill="none"></path></g></g></svg>